<svg version="1.1" viewBox="0.0 0.0 177.56692913385828 232.92388451443568" fill="none" stroke="none" stroke-linecap="square" stroke-miterlimit="10" xmlns:xlink="http://www.w3.org/1999/xlink" xmlns="http://www.w3.org/2000/svg"><clipPath id="p.0"><path d="m0 0l177.56693 0l0 232.92389l-177.56693 0l0 -232.92389z" clip-rule="nonzero"/></clipPath><g clip-path="url(#p.0)"><path fill="#000000" fill-opacity="0.0" d="m0 0l177.56693 0l0 232.92389l-177.56693 0z" fill-rule="evenodd"/><path fill="#000000" fill-opacity="0.0" d="m-0.002624672 -0.7191601l177.5748 0l0 229.92126l-177.5748 0z" fill-rule="evenodd"/><path fill="#ffffff" d="m44.99736 47.16521q-2.203125 0 -4.0 -0.859375q-1.796875 -0.859375 -3.078125 -2.53125q-1.28125 -1.6875 -1.984375 -4.171875q-0.703125 -2.484375 -0.703125 -5.71875q0 -3.249998 0.703125 -5.687498q0.703125 -2.4375 1.984375 -4.09375q1.28125 -1.65625 3.078125 -2.46875q1.796875 -0.828125 4.0 -0.828125q2.203125 0 4.0 0.828125q1.796875 0.8125 3.078125 2.46875q1.28125 1.65625 1.984375 4.09375q0.703125 2.4375 0.703125 5.687498q0 3.234375 -0.703125 5.71875q-0.703125 2.484375 -1.984375 4.171875q-1.28125 1.671875 -3.078125 2.53125q-1.796875 0.859375 -4.0 0.859375zm0 -4.5625q0.953125 0 1.765625 -0.4375q0.828125 -0.4375 1.421875 -1.453125q0.609375 -1.03125 0.96875 -2.6875q0.359375 -1.65625 0.359375 -4.140625q0 -2.484373 -0.359375 -4.124998q-0.359375 -1.640625 -0.96875 -2.609375q-0.59375 -0.984375 -1.421875 -1.375q-0.8125 -0.40625 -1.765625 -0.40625q-0.953125 0 -1.78125 0.40625q-0.8125 0.390625 -1.421875 1.375q-0.59375 0.96875 -0.953125 2.609375q-0.359375 1.640625 -0.359375 4.124998q0 2.484375 0.359375 4.140625q0.359375 1.65625 0.953125 2.6875q0.609375 1.015625 1.421875 1.453125q0.828125 0.4375 1.78125 0.4375zm0 -5.765625q-1.28125 0 -2.140625 -0.8125q-0.859375 -0.828125 -0.859375 -2.21875q0 -1.40625 0.859375 -2.218748q0.859375 -0.828125 2.140625 -0.828125q1.28125 0 2.140625 0.828125q0.859375 0.8124981 0.859375 2.218748q0 1.390625 -0.859375 2.21875q-0.859375 0.8125 -2.140625 0.8125zm71.999954 10.328125q-2.203125 0 -4.0 -0.859375q-1.796875 -0.859375 -3.078125 -2.53125q-1.28125 -1.6875 -1.984375 -4.171875q-0.703125 -2.484375 -0.703125 -5.71875q0 -3.249998 0.703125 -5.687498q0.703125 -2.4375 1.984375 -4.09375q1.28125 -1.65625 3.078125 -2.46875q1.796875 -0.828125 4.0 -0.828125q2.203125 0 4.0 0.828125q1.796875 0.8125 3.078125 2.46875q1.28125 1.65625 1.984375 4.09375q0.703125 2.4375 0.703125 5.687498q0 3.234375 -0.703125 5.71875q-0.703125 2.484375 -1.984375 4.171875q-1.28125 1.671875 -3.078125 2.53125q-1.796875 0.859375 -4.0 0.859375zm0 -4.5625q0.953125 0 1.765625 -0.4375q0.828125 -0.4375 1.421875 -1.453125q0.609375 -1.03125 0.96875 -2.6875q0.359375 -1.65625 0.359375 -4.140625q0 -2.484373 -0.359375 -4.124998q-0.359375 -1.640625 -0.96875 -2.609375q-0.59375 -0.984375 -1.421875 -1.375q-0.8125 -0.40625 -1.765625 -0.40625q-0.953125 0 -1.78125 0.40625q-0.8125 0.390625 -1.421875 1.375q-0.59375 0.96875 -0.953125 2.609375q-0.359375 1.640625 -0.359375 4.124998q0 2.484375 0.359375 4.140625q0.359375 1.65625 0.953125 2.6875q0.609375 1.015625 1.421875 1.453125q0.828125 0.4375 1.78125 0.4375zm0 -5.765625q-1.28125 0 -2.140625 -0.8125q-0.859375 -0.828125 -0.859375 -2.21875q0 -1.40625 0.859375 -2.218748q0.859375 -0.828125 2.140625 -0.828125q1.28125 0 2.140625 0.828125q0.859375 0.8124981 0.859375 2.218748q0 1.390625 -0.859375 2.21875q-0.859375 0.8125 -2.140625 0.8125z" fill-rule="nonzero"/><path fill="#ffffff" d="m60.316116 101.08708l-13.171875 -34.8125l4.921875 0l13.171875 34.8125l-4.921875 0zm10.281235 0.15625l0 -4.40625l19.1875 0l0 4.40625l-19.1875 0zm24.54686 -0.15625l13.171875 -34.8125l4.921875 0l-13.171875 34.8125l-4.921875 0z" fill-rule="nonzero"/><path fill="#ffffff" d="m59.878616 149.83708q-3.921875 -3.46875 -6.1875 -8.03125q-2.265625 -4.5625 -2.265625 -10.25q0 -5.671875 2.265625 -10.234375q2.265625 -4.5625 6.1875 -8.046875l3.265625 2.609375q-3.546875 3.484375 -5.171875 7.21875q-1.625 3.734375 -1.625 8.453125q0 2.359375 0.390625 4.46875q0.40625 2.09375 1.21875 4.015625q0.828125 1.921875 2.109375 3.703125q1.28125 1.78125 3.078125 3.5l-3.265625 2.59375zm20.312485 -6.671875q-2.3125 0 -4.265625 -0.875q-1.9375 -0.890625 -3.3125 -2.609375q-1.375 -1.71875 -2.140625 -4.25q-0.765625 -2.546875 -0.765625 -5.90625q0 -3.28125 0.765625 -5.78125q0.765625 -2.5 2.140625 -4.203125q1.375 -1.703125 3.3125 -2.5625q1.953125 -0.859375 4.265625 -0.859375q2.3125 0 4.25 0.859375q1.953125 0.859375 3.328125 2.5625q1.375 1.703125 2.140625 4.203125q0.765625 2.5 0.765625 5.78125q0 3.359375 -0.765625 5.90625q-0.765625 2.53125 -2.140625 4.25q-1.375 1.71875 -3.328125 2.609375q-1.9375 0.875 -4.25 0.875zm0 -5.078125q2.046875 0 3.234375 -2.15625q1.203125 -2.171875 1.203125 -6.40625q0 -4.078125 -1.203125 -6.203125q-1.1875 -2.125 -3.234375 -2.125q-2.046875 0 -3.25 2.125q-1.1875 2.125 -1.1875 6.203125q0 4.234375 1.1875 6.40625q1.203125 2.15625 3.25 2.15625zm20.312485 11.75l-3.265625 -2.59375q1.796875 -1.71875 3.078125 -3.5q1.28125 -1.78125 2.09375 -3.703125q0.828125 -1.921875 1.21875 -4.015625q0.40625 -2.109375 0.40625 -4.46875q0 -4.71875 -1.625 -8.453125q-1.625 -3.734375 -5.171875 -7.21875l3.265625 -2.609375q3.921875 3.484375 6.1875 8.046875q2.265625 4.5625 2.265625 10.234375q0 5.6875 -2.265625 10.25q-2.265625 4.5625 -6.1875 8.03125z" fill-rule="nonzero"/><path fill="#ffffff" d="m22.934853 197.08708l13.171875 -34.8125l4.921875 0l-13.171875 34.8125l-4.921875 0zm23.45311 0.15625l0 -4.40625l19.1875 0l0 4.40625l-19.1875 0zm37.718735 -0.15625l-13.171875 -34.8125l4.921875 0l13.171875 34.8125l-4.921875 0zm23.999985 0l-13.171875 -34.8125l4.921875 0l13.171875 34.8125l-4.921875 0zm10.82811 0l13.171867 -34.8125l4.921875 0l-13.171867 34.8125l-4.921875 0zm23.453117 0.15625l0 -4.40625l19.1875 0l0 4.40625l-19.1875 0z" fill-rule="nonzero"/><path fill="#ffffff" d="m20.2874 225.20084l0 -13.359375l1.765625 0l0 5.484375l6.9375 0l0 -5.484375l1.765625 0l0 13.359375l-1.765625 0l0 -6.296875l-6.9375 0l0 6.296875l-1.765625 0zm13.207321 -11.46875l0 -1.890625l1.640625 0l0 1.890625l-1.640625 0zm0 11.46875l0 -9.671875l1.640625 0l0 9.671875l-1.640625 0zm4.566696 0l0 -1.875l1.875 0l0 1.875q0 1.03125 -0.375 1.65625q-0.359375 0.640625 -1.15625 0.984375l-0.453125 -0.703125q0.515625 -0.21875 0.765625 -0.671875q0.25 -0.4375 0.28125 -1.265625l-0.9375 0zm9.944733 0l0 -13.359375l1.640625 0l0 4.796875q1.140625 -1.328125 2.890625 -1.328125q1.078125 0 1.859375 0.421875q0.796875 0.421875 1.140625 1.171875q0.34375 0.75 0.34375 2.171875l0 6.125l-1.640625 0l0 -6.125q0 -1.234375 -0.53125 -1.796875q-0.53125 -0.5625 -1.515625 -0.5625q-0.71875 0 -1.359375 0.390625q-0.640625 0.375 -0.921875 1.015625q-0.265625 0.640625 -0.265625 1.78125l0 5.296875l-1.640625 0zm9.766342 -4.84375q0 -2.6875 1.484375 -3.96875q1.25 -1.078125 3.046875 -1.078125q2.0 0 3.265625 1.3125q1.265625 1.296875 1.265625 3.609375q0 1.859375 -0.5625 2.9375q-0.5625 1.0625 -1.640625 1.65625q-1.0625 0.59375 -2.328125 0.59375q-2.03125 0 -3.28125 -1.296875q-1.25 -1.3125 -1.25 -3.765625zm1.6875 0q0 1.859375 0.796875 2.796875q0.8125 0.921875 2.046875 0.921875q1.21875 0 2.03125 -0.921875q0.8125 -0.9375 0.8125 -2.84375q0 -1.796875 -0.8125 -2.71875q-0.8125 -0.921875 -2.03125 -0.921875q-1.234375 0 -2.046875 0.921875q-0.796875 0.90625 -0.796875 2.765625zm11.078842 4.84375l-2.96875 -9.671875l1.703125 0l1.53125 5.578125l0.578125 2.078125q0.046875 -0.15625 0.5 -2.0l1.546875 -5.65625l1.6875 0l1.4375 5.609375l0.484375 1.84375l0.5625 -1.859375l1.65625 -5.59375l1.59375 0l-3.03125 9.671875l-1.703125 0l-1.53125 -5.796875l-0.375 -1.640625l-1.953125 7.4375l-1.71875 0zm23.1875 -1.1875q-0.921875 0.765625 -1.765625 1.09375q-0.828125 0.3125 -1.796875 0.3125q-1.59375 0 -2.453125 -0.78125q-0.859375 -0.78125 -0.859375 -1.984375q0 -0.71875 0.328125 -1.296875q0.328125 -0.59375 0.84375 -0.9375q0.53125 -0.359375 1.1875 -0.546875q0.46875 -0.125 1.453125 -0.25q1.984375 -0.234375 2.921875 -0.5625q0.015625 -0.34375 0.015625 -0.421875q0 -1.0 -0.46875 -1.421875q-0.625 -0.546875 -1.875 -0.546875q-1.15625 0 -1.703125 0.40625q-0.546875 0.40625 -0.8125 1.421875l-1.609375 -0.21875q0.21875 -1.015625 0.71875 -1.640625q0.5 -0.640625 1.453125 -0.984375q0.953125 -0.34375 2.1875 -0.34375q1.25 0 2.015625 0.296875q0.78125 0.28125 1.140625 0.734375q0.375 0.4375 0.515625 1.109375q0.078125 0.421875 0.078125 1.515625l0 2.1875q0 2.28125 0.109375 2.890625q0.109375 0.59375 0.40625 1.15625l-1.703125 0q-0.265625 -0.515625 -0.328125 -1.1875zm-0.140625 -3.671875q-0.890625 0.375 -2.671875 0.625q-1.015625 0.140625 -1.4375 0.328125q-0.421875 0.1875 -0.65625 0.53125q-0.21875 0.34375 -0.21875 0.78125q0 0.65625 0.5 1.09375q0.5 0.4375 1.453125 0.4375q0.9375 0 1.671875 -0.40625q0.75 -0.421875 1.09375 -1.140625q0.265625 -0.5625 0.265625 -1.640625l0 -0.609375zm4.188217 4.859375l0 -9.671875l1.46875 0l0 1.46875q0.5625 -1.03125 1.03125 -1.359375q0.484375 -0.328125 1.0625 -0.328125q0.828125 0 1.6875 0.53125l-0.5625 1.515625q-0.609375 -0.359375 -1.203125 -0.359375q-0.546875 0 -0.96875 0.328125q-0.421875 0.328125 -0.609375 0.890625q-0.28125 0.875 -0.28125 1.921875l0 5.0625l-1.625 0zm12.853302 -3.109375l1.6875 0.203125q-0.40625 1.484375 -1.484375 2.3125q-1.078125 0.8125 -2.765625 0.8125q-2.125 0 -3.375 -1.296875q-1.234375 -1.3125 -1.234375 -3.671875q0 -2.453125 1.25 -3.796875q1.265625 -1.34375 3.265625 -1.34375q1.9375 0 3.15625 1.328125q1.234375 1.3125 1.234375 3.703125q0 0.15625 0 0.4375l-7.21875 0q0.09375 1.59375 0.90625 2.453125q0.8125 0.84375 2.015625 0.84375q0.90625 0 1.546875 -0.46875q0.640625 -0.484375 1.015625 -1.515625zm-5.390625 -2.65625l5.40625 0q-0.109375 -1.21875 -0.625 -1.828125q-0.78125 -0.953125 -2.03125 -0.953125q-1.125 0 -1.90625 0.765625q-0.765625 0.75 -0.84375 2.015625zm14.246521 9.484375l-0.1875 -1.53125q0.546875 0.140625 0.9375 0.140625q0.546875 0 0.875 -0.1875q0.328125 -0.171875 0.546875 -0.5q0.15625 -0.25 0.5 -1.21875q0.046875 -0.140625 0.140625 -0.40625l-3.671875 -9.6875l1.765625 0l2.015625 5.59375q0.390625 1.078125 0.703125 2.25q0.28125 -1.125 0.671875 -2.203125l2.078125 -5.640625l1.640625 0l-3.6875 9.828125q-0.59375 1.609375 -0.921875 2.203125q-0.4375 0.8125 -1.0 1.1875q-0.5625 0.375 -1.34375 0.375q-0.484375 0 -1.0625 -0.203125zm8.796875 -8.5625q0 -2.6875 1.484375 -3.96875q1.25 -1.078125 3.046875 -1.078125q2.0 0 3.265625 1.3125q1.265625 1.296875 1.265625 3.609375q0 1.859375 -0.5625 2.9375q-0.5625 1.0625 -1.640625 1.65625q-1.0625 0.59375 -2.328125 0.59375q-2.03125 0 -3.28125 -1.296875q-1.25 -1.3125 -1.25 -3.765625zm1.6875 0q0 1.859375 0.796875 2.796875q0.8125 0.921875 2.046875 0.921875q1.21875 0 2.03125 -0.921875q0.8125 -0.9375 0.8125 -2.84375q0 -1.796875 -0.8125 -2.71875q-0.8125 -0.921875 -2.03125 -0.921875q-1.234375 0 -2.046875 0.921875q-0.796875 0.90625 -0.796875 2.765625zm15.625717 4.84375l0 -1.421875q-1.125 1.640625 -3.0625 1.640625q-0.859375 0 -1.609375 -0.328125q-0.734375 -0.328125 -1.09375 -0.828125q-0.359375 -0.5 -0.5 -1.21875q-0.109375 -0.46875 -0.109375 -1.53125l0 -5.984375l1.640625 0l0 5.359375q0 1.28125 0.109375 1.734375q0.15625 0.640625 0.65625 1.015625q0.5 0.375 1.234375 0.375q0.734375 0 1.375 -0.375q0.65625 -0.390625 0.921875 -1.03125q0.265625 -0.65625 0.265625 -1.890625l0 -5.1875l1.640625 0l0 9.671875l-1.46875 0zm7.110092 -3.28125q0 -0.328125 0 -0.5q0 -0.96875 0.265625 -1.671875q0.203125 -0.515625 0.640625 -1.0625q0.328125 -0.390625 1.171875 -1.140625q0.859375 -0.75 1.109375 -1.1875q0.265625 -0.453125 0.265625 -0.984375q0 -0.953125 -0.75 -1.671875q-0.734375 -0.734375 -1.828125 -0.734375q-1.046875 0 -1.75 0.65625q-0.703125 0.65625 -0.921875 2.046875l-1.6875 -0.203125q0.234375 -1.859375 1.359375 -2.84375q1.125 -1.0 2.96875 -1.0q1.96875 0 3.125 1.0625q1.171875 1.0625 1.171875 2.578125q0 0.875 -0.40625 1.609375q-0.40625 0.734375 -1.609375 1.796875q-0.796875 0.703125 -1.046875 1.046875q-0.25 0.34375 -0.375 0.78125q-0.109375 0.4375 -0.125 1.421875l-1.578125 0zm-0.09375 3.28125l0 -1.875l1.859375 0l0 1.875l-1.859375 0z" fill-rule="nonzero"/></g></svg>